<?xml version="1.0" encoding="UTF-8" standalone="no"?>
<!-- Created with Inkscape (http://www.inkscape.org/) -->

<svg
   xmlns:dc="http://purl.org/dc/elements/1.1/"
   xmlns:cc="http://creativecommons.org/ns#"
   xmlns:rdf="http://www.w3.org/1999/02/22-rdf-syntax-ns#"
   xmlns:svg="http://www.w3.org/2000/svg"
   xmlns="http://www.w3.org/2000/svg"
   xmlns:sodipodi="http://sodipodi.sourceforge.net/DTD/sodipodi-0.dtd"
   xmlns:inkscape="http://www.inkscape.org/namespaces/inkscape"
   width="744.09448819"
   height="1052.3622047"
   id="svg3755"
   version="1.1"
   inkscape:version="0.91pre2_64bit r13532"
   sodipodi:docname="logo.svg">
  <defs
     id="defs3757" />
  <sodipodi:namedview
     id="base"
     pagecolor="#ffffff"
     bordercolor="#666666"
     borderopacity="1.0"
     inkscape:pageopacity="0.0"
     inkscape:pageshadow="2"
     inkscape:zoom="1.1658768"
     inkscape:cx="271.20116"
     inkscape:cy="869.68758"
     inkscape:document-units="px"
     inkscape:current-layer="layer1"
     showgrid="false"
     inkscape:window-width="1600"
     inkscape:window-height="796"
     inkscape:window-x="-8"
     inkscape:window-y="-8"
     inkscape:window-maximized="1" />
  <metadata
     id="metadata3760">
    <rdf:RDF>
      <cc:Work
         rdf:about="">
        <dc:format>image/svg+xml</dc:format>
        <dc:type
           rdf:resource="http://purl.org/dc/dcmitype/StillImage" />
        <dc:title></dc:title>
      </cc:Work>
    </rdf:RDF>
  </metadata>
  <g
     inkscape:label="Layer 1"
     inkscape:groupmode="layer"
     id="layer1">
    <circle
       style="fill:#2c3e50;fill-opacity:1;fill-rule:evenodd;stroke:none;stroke-width:1px;stroke-linecap:butt;stroke-linejoin:miter;stroke-opacity:1"
       id="path3356"
       cx="128"
       cy="128"
       r="128" />
    <g
       id="g4336"
       transform="matrix(0.50747682,0,0,0.50747682,10.833708,49.286095)">
      <path
         sodipodi:nodetypes="ccccc"
         inkscape:connector-curvature="0"
         d="m 123.21822,229.0754 33.34246,-17.26853 42.39629,-78.84397 -38.80511,22.24398 z"
         style="fill:#000000;fill-opacity:1;stroke:none"
         id="path4329" />
      <path
         sodipodi:nodetypes="cccccccccccccccccc"
         inkscape:connector-curvature="0"
         d="m 205.95437,201.96875 c -2.16134,0.84261 -8.04896,3.7105 -10.89625,7.6175 -5.22772,7.57927 -7.32404,16.99009 -14.43875,23.38625 -5.06208,5.18901 -5.39956,5.27312 1.94875,3.0112 44.7877,-11.7721 89.99984,-23.23821 136.1525,-27.99145 5.51837,0.36817 9.46305,-2.42125 13.2688,2.16249 1.46403,8.42735 5.10213,-2.49325 5.39077,-6.08498 0.88121,-7.45128 3.81001,-18.34464 -3.42332,-23.18381 -4.68716,0.54283 -7.4441,6.64616 -13.37145,6.46482 -28.62121,7.69238 -58.13839,12.33042 -87.79105,13.02333 1.76294,-4.83567 4.08347,-12.1583 5.75875,-14.61625 3.14851,-7.00027 6.36721,-13.96951 11.02812,-24.4925 13.07416,-27.72119 20.46877,-54.81991 38.36291,-75.390107 8.38043,-6.333063 14.342,-14.977027 17.93147,-24.841143 -27.06454,18.149255 -53.8346,36.70129 -80.4325,55.54125 5.73769,-2.98236 16.95067,-2.18137 14.88135,6.8213 -2.7223,13.0441 -7.86721,25.46557 -14.17318,41.32293 -6.98024,15.0452 -11.18185,27.87106 -20.19692,37.24917 z"
         style="fill:#000000;fill-opacity:1;stroke:none"
         id="path4316" />
      <path
         sodipodi:nodetypes="ccccccc"
         inkscape:connector-curvature="0"
         d="m 55.540725,254.6754 c 10.735569,-4.90394 23.007009,-8.1504 32.777361,-14.09597 9.271295,-18.71676 18.542594,-37.43352 29.541384,-59.6934 10.49708,-21.23021 19.26667,-38.9173 28.03625,-56.60438 -14.35042,8.00208 -28.70083,16.00417 -43.05125,24.00625 -4.990415,11.25 -9.98083,22.5 -16.521245,37.24875 -11.294167,25.37875 -21.038333,47.25875 -30.7825,69.13875 z"
         style="fill:#000000;fill-opacity:1;stroke:none"
         id="path4306" />
      <path
         sodipodi:nodetypes="cccccccc"
         inkscape:connector-curvature="0"
         d="m 583.83074,114.50073 c 10.84246,-3.73763 21.68492,-7.47525 32.52738,-11.21288 -121.74208,18.15958 -243.48417,36.31917 -416.2404,62.05295 -60.85302,9.05017 -70.69188,10.52614 -96.38762,14.3496 -29.594727,3.70332 -41.902181,10.60574 -54.92125,14.74875 11.988125,-1.80125 23.97625,-3.6025 51.64375,-7.70688 26.27979,-3.89729 36.8802,-5.49145 97.52932,-14.5269 161.96458,-24.26722 274.02025,-40.52182 385.84882,-57.70464 z"
         style="fill:#ff0000;fill-opacity:1;stroke:none"
         id="path4304" />
      <path
         inkscape:connector-curvature="0"
         style="fill:#ff0000;fill-opacity:1;stroke:none"
         d="m 173.71062,285.945 -0.53125,0.0888 -0.975,0 0.4425,0 -1.41625,0.1775 -1.68375,0.17625 -1.0625,0.0888 -1.24,0.0888 -1.41749,0.1775 -1.50626,0.0888 -1.68375,0.0888 -1.77125,0.0875 -0.885,0.0888 -0.975,0 -0.975,0.0888 -0.97375,0.0888 -1.0625,0 -1.06375,0 -1.15124,0.0888 -1.06375,0 -1.15126,0.0888 -1.15124,0 -1.15125,0 -1.24,0 -1.24125,0 -1.24,0 -1.24,0 -1.32875,0 -1.32875,0 -1.24,0 -1.4175,0 -1.32875,-0.0888 -1.32875,0 -1.4175,-0.0888 -1.41625,-0.0888 -1.4175,0 -1.4175,-0.0888 -1.4175,-0.0888 -1.4175,-0.0875 -1.50625,-0.0888 -1.41625,-0.1775 -1.50625,-0.0888 -1.50625,-0.1775 -1.4175,-0.0888 -1.50625,-0.17625 -1.505,-0.1775 -1.50625,-0.1775 -1.50625,-0.265 -1.59375,-0.1775 -1.50625,-0.1775 -1.50625,-0.265 -1.505,-0.26625 -1.50625,-0.26625 -1.595,-0.265 -1.505,-0.26625 -1.50625,-0.35375 -1.50625,-0.26625 -1.506255,-0.35375 -1.59375,-0.355 -1.50625,-0.35375 -1.50625,-0.44375 -1.505,-0.35375 -1.50625,-0.4425 -1.4175,-0.44375 -1.50625,-0.4425 -1.505,-0.4425 -1.4175,-0.5325 -1.50625,-0.53125 -1.4175,-0.53125 -1.4175,-0.53125 -1.4175,-0.53125 -1.41625,-0.62 -1.4175,-0.62 -1.4175,-0.62125 -1.32875,-0.62 -1.32875,-0.70875 -1.32875,-0.7075 -1.32875,-0.70875 -1.32875,-0.70875 -1.32875,-0.70875 -1.24,-0.7975 -1.24,-0.7975 -1.24125,-0.88625 -1.15125,-0.79625 -1.24,-0.88625 -1.15125,-0.88625 -1.15125,-0.97375 -1.06375,-0.88625 -1.15125,-0.97375 -1.0625,-1.06375 -0.975,-0.97375 -1.063,-1.06375 -0.974375,-1.0625 -0.9745,-1.15125 -0.88575,-1.06375 -0.885875,-1.15125 -0.88575,-1.24 -0.79725,-1.15125 -0.885875,-1.24 -0.708625,-1.32875 -0.79725,-1.24125 -0.70875,-1.32875 -0.62,-1.41625 -0.620125,-1.32875 -0.62,-1.4175 -0.5315,-1.50625 -0.5315,-1.4175 -0.5315,-1.50625 -0.443,-1.59375 -0.35425,-1.595 -0.443,-1.59375 -0.26575,-1.595 -0.35425,-1.6825 -0.17725,-1.68375 -0.26575,-1.77125 -0.0885,-1.7725 -0.177125,-1.6825 -0.08863,-1.77125 0,-1.7725 0,-1.6825 0,-1.77125 0.08863,-1.7725 0.177125,-1.6825 0.177125,-1.7725 0.177125,-1.41625 0.17725,-1.4175 0.26575,-1.4175 0.26575,-1.50625 0.26575,-1.4175 0.35425,-1.4175 0.354375,-1.41625 0.354375,-1.4175 0.442875,-1.4175 0.442875,-1.32875 0.443,-1.4175 0.5315,-1.4175 0.442875,-1.32875 0.620125,-1.4175 0.531375,-1.32875 0.620125,-1.4175 0.620125,-1.32875 0.62,-1.3275 0.620125,-1.4175 0.708625,-1.32875 0.70875,-1.32875 0.708625,-1.32875 0.79725,-1.32875 0.79725,-1.24 0.79725,-1.32875 0.79725,-1.32875 0.88575,-1.32875 0.885875,-1.24125 0.88625,-1.32875 0.885,-1.24 0.88625,-1.24 0.975,-1.32875 0.97375,-1.15125 0.975,-1.24 0.885,-1.15125 1.06375,-1.24125 0.97375,-1.15125 0.975,-1.15125 1.0625,-1.15125 1.0625,-1.1525 0.975,-1.15125 1.15125,-1.15125 1.06375,-1.15125 1.0625,-1.06375 1.15125,-1.15125 1.06375,-1.0625 1.15125,-1.1525 1.15125,-1.0625 1.15125,-1.0625 1.1525,-1.06375 1.15125,-1.0625 1.24,-1.06375 1.15125,-1.0625 1.24,-0.975 1.24125,-1.0625 1.24,-0.97375 1.24,-1.06375 1.24,-0.97375 1.24,-0.975 1.24,-0.97375 1.32875,-0.975 1.24,-0.975 1.32875,-0.97375 1.24,-0.88625 1.32875,-0.97375 1.32875,-0.88625 1.32875,-0.97375 1.328745,-0.88625 1.32875,-0.88625 1.32875,-0.885 1.4175,-0.88625 1.32875,-0.88625 1.32875,-0.885 1.4175,-0.7975 1.32875,-0.88625 1.4175,-0.7975 1.4175,-0.885 1.32875,-0.7975 1.4175,-0.7975 1.4175,-0.7975 1.41625,-0.79625 1.4175,-0.7975 1.4175,-0.7975 1.4175,-0.7975 1.4175,-0.70875 1.4175,-0.7975 1.4175,-0.70875 1.41625,-0.7075 1.4175,-0.70875 1.4175,-0.70875 1.4175,-0.70875 1.4175,-0.70875 1.50625,-0.70875 1.41625,-0.70875 1.4175,-0.62 1.4175,-0.70875 1.4175,-0.62 1.50625,-0.62 1.4175,-0.62 1.41625,-0.62 1.4175,-0.62 1.50625,-0.62 1.4175,-0.62 1.4175,-0.62125 1.4175,-0.53125 1.41625,-0.62 1.4175,-0.53125 1.4175,-0.53125 1.4175,-0.53125 1.4175,-0.5325 1.4175,-0.53125 1.4175,-0.53125 1.41625,-0.53125 1.4175,-0.44375 1.4175,-0.53125 1.4175,-0.4425 1.32875,-0.53125 1.4175,-0.44375 1.4175,-0.4425 1.32875,-0.4425 1.4175,-0.44375 1.32875,-0.4425 1.32875,-0.35375 1.41625,-0.44375 1.32875,-0.4425 1.32875,-0.35375 1.32875,-0.355 1.32875,-0.35375 1.32875,-0.355 1.32875,-0.35375 1.24125,-0.355 1.32875,-0.35375 1.24,-0.355 1.32875,-0.265 1.24,-0.355 1.24,-0.265 1.24,-0.26625 1.24,-0.35375 1.24,-0.26625 1.24,-0.1775 1.24125,-0.265 1.15125,-0.26625 1.24,-0.26625 1.15125,-0.17625 1.15125,-0.26625 1.1525,-0.1775 1.15125,-0.17625 1.15125,-0.1775 1.06375,-0.1775 1.15125,-0.1775 1.0625,-0.17625 1.06375,-0.1775 1.15125,-0.08875 0.97375,-0.1775 1.06375,-0.0875 1.0625,-0.08875 0.975,-0.08875 0.97375,-0.08875 1.06375,-0.08875 0.885,-0.08875 1.68375,-0.1775 1.6825,0 1.595,-0.0875 1.59375,-0.08875 1.595,0 1.595,0 1.59375,0 1.50625,0 1.50625,-0.08875 1.4175,0 1.41625,0 1.4175,0 13.55375,-0.26625 10.4525,-6.02375 1.4175,-0.79625 0.7975,-0.44375 0.79625,-0.53125 0.7975,-0.4425 0.88625,-0.5325 0.88625,-0.53125 0.97375,-0.53125 0.975,-0.53125 0.97375,-0.62 1.0625,-0.62 1.06375,-0.62 1.0625,-0.62 1.1525,-0.62 1.0625,-0.70875 1.24,-0.62 1.15125,-0.70875 1.24,-0.70875 1.24125,-0.70875 1.24,-0.70875 1.24,-0.7975 1.32875,-0.70875 1.32875,-0.7975 1.32875,-0.79625 1.32875,-0.7975 1.4175,-0.7975 1.32875,-0.7975 1.4175,-0.7975 1.41625,-0.885 1.50625,-0.7975 1.4175,-0.88625 1.50625,-0.7975 1.4175,-0.885 1.505,-0.88625 1.50625,-0.88625 1.50625,-0.885 1.59375,-0.88625 1.50625,-0.885 1.50625,-0.88625 1.59375,-0.88625 0.7975,-0.4425 0.70875,-0.4425 0.7975,-0.44375 0.7975,-0.53125 0.79625,-0.4425 0.7975,-0.44375 0.7975,-0.4425 0.70875,-0.4425 0.7975,-0.44375 0.7975,-0.53125 0.79625,-0.4425 0.7975,-0.4425 0.7975,-0.44375 0.7975,-0.4425 0.7975,-0.53125 0.79625,-0.44375 0.7975,-0.4425 0.7975,-0.4425 0.7975,-0.44375 0.7975,-0.53125 0.79625,-0.4425 0.7975,-0.44375 0.70875,-0.4425 0.7975,-0.4425 0.7975,-0.53125 0.79625,-0.44375 0.7975,-0.4425 0.7975,-0.4425 0.7975,-0.44375 0.7975,-0.53125 0.79625,-0.4425 0.7975,-0.44375 0.70875,-0.4425 0.7975,-0.4425 0.7975,-0.44375 0.79625,-0.4425 1.50625,-0.97375 1.595,-0.88625 1.50625,-0.88625 1.505,-0.885 1.595,-0.88625 1.50625,-0.88625 1.15125,-0.70875 1.15125,-0.62 1.24,-0.70875 1.15125,-0.70875 1.1525,-0.62 1.15125,-0.70875 1.15125,-0.70875 1.1525,-0.62 1.15125,-0.7075 1.0625,-0.62125 1.15125,-0.62 1.06375,-0.70875 1.15125,-0.62 1.0625,-0.62 1.06375,-0.62 1.0625,-0.62 1.06375,-0.62 1.0625,-0.62 0.975,-0.53125 1.0625,-0.62 0.975,-0.62 0.97375,-0.53125 0.975,-0.5325 0.97375,-0.62 0.88625,-0.53125 0.97375,-0.53125 0.88625,-0.53125 0.88625,-0.53125 0.885,-0.5325 0.88625,-0.4425 0.7975,-0.53125 0.885,-0.44375 0.7975,-0.4425 1.50625,-0.97375 1.50625,-0.7975 1.32875,-0.7975 1.32875,-0.7975 1.24,-0.70875 1.0625,-0.62 1.06375,-0.62 0.885,-0.53125 1.595,-0.88625 1.0625,-0.62 0.70875,-0.4425 0,0 -1.6825,-0.08875 -0.975,0 -1.24,-0.08875 -1.32875,0 -1.595,0 -1.6825,-0.08875 -0.975,0 -0.97375,0 -1.06375,0 -1.0625,0 -1.15125,0 -1.15125,0 -1.24125,0 -1.24,0 -1.32875,0 -1.32875,0 -1.32875,0 -1.4175,0 -1.505,0 -1.50625,0.08875 -1.50625,0 -1.59375,0 -1.595,0.08875 -1.6825,0 -1.68375,0.08875 -1.6825,0 -1.7725,0.08875 -1.77125,0 -0.88625,0.08875 -0.97375,0 -0.88625,0 -0.97375,0.0875 -0.88625,0 -0.97375,0.08875 -0.975,0 -0.97375,0.08875 -0.975,0 -0.975,0.08875 -0.97375,0 -0.975,0.08875 -1.0625,0 -0.975,0.08875 -1.0625,0 -0.97375,0.08875 -1.06375,0.08875 -1.0625,0 -1.06375,0.0875 -0.97375,0.08875 -1.06375,0 -1.15125,0.08875 -1.0625,0.08875 -1.06375,0.08875 -1.0625,0.08875 -1.15125,0 -1.06375,0.08875 -1.15125,0.0875 -1.0625,0.08875 -1.1525,0.08875 -1.15125,0.08875 -1.15125,0.08875 -1.15125,0.08875 -1.1525,0.08875 -1.15125,0.08875 -1.15125,0.0875 -1.15125,0.08875 -1.1525,0.08875 -1.15125,0.08875 -1.24,0.1775 -1.15125,0.08875 -1.24,0.0875 -1.1525,0.08875 -1.24,0.1775 -1.24,0.08875 -1.15125,0.08875 -1.24,0.1775 -1.24,0.0875 -13.2875,20.90625 -1.50625,0.265 -1.4175,0.1775 -1.32875,0.1775 -1.32875,0.1775 -1.24,0.17625 -1.15125,0.1775 -1.06375,0.08875 -0.97375,0.1775 -1.68375,0.265 -1.32875,0.1775 -1.6825,0.26625 -0.88625,0.0875 -1.6825,0.26625 0.885,-0.08875 0.70875,-1.4175 0.70875,-1.4175 0.70875,-1.24 0.62,-1.24 0.62,-1.24 0.62,-1.15125 0.5325,-1.06375 0.53125,-1.0625 0.53125,-0.97375 0.53125,-0.975 0.44375,-0.88625 0.4425,-0.79625 0.7975,-1.50625 0.70875,-1.4175 0.62,-1.15125 0.53125,-0.975 0.70875,-1.50625 0.62,-1.15125 -1.7725,0.26625 -1.77125,0.1775 -0.885,0.17625 -0.88625,0.08875 -0.88625,0.1775 -0.97375,0.08875 -0.88625,0.08875 -0.88625,0.17625 -0.885,0.08875 -0.88625,0.1775 -0.975,0.08875 -0.885,0.17625 -0.88625,0.08875 -0.97375,0.1775 -0.88625,0.08875 -0.88625,0.1775 -0.97375,0.08875 -0.88625,0.17625 -0.88625,0.1775 -0.97375,0.08875 -0.88625,0.1775 -0.97375,0.17625 -0.88625,0.08875 -0.97375,0.1775 -0.88625,0.1775 -0.975,0.17625 -0.885,0.08875 -0.975,0.1775 -0.885,0.1775 -0.975,0.1775 -0.88625,0.17625 -0.97375,0.08875 -0.975,0.1775 -0.885,0.1775 -0.975,0.17625 -0.97375,0.1775 -0.88625,0.1775 -0.975,0.17625 -0.97375,0.1775 -0.88625,0.1775 -0.97375,0.1775 -0.975,0.17625 -0.88625,0.1775 -0.97375,0.1775 -0.975,0.1775 -0.97375,0.17625 -0.88625,0.1775 -0.97375,0.26625 -0.975,0.17625 -0.97375,0.1775 -0.975,0.1775 -0.88625,0.1775 -0.97375,0.265 -0.975,0.1775 -0.97375,0.1775 -0.975,0.265 -0.97375,0.1775 -0.88625,0.1775 -0.97375,0.265 -0.975,0.1775 -0.97375,0.26625 -0.975,0.17625 -3.1,21.08375 -0.975,0.265 -0.97375,0.1775 -1.06375,0.265 -0.97375,0.26625 -0.975,0.26625 -0.97375,0.265 -1.06375,0.26625 -0.97375,0.265 -1.32875,0.355 -1.32875,0.35375 0.0888,-1.32875 0.0888,-1.24 0.0875,-1.24 0.0888,-1.24 0.0887,-1.15125 0,-1.06375 0.0888,-1.0625 0.0888,-0.975 0,-0.97375 0.1775,-1.77125 0.0875,-1.68375 0.0887,-1.4175 0.0888,-1.24 0,-1.15125 0.1775,-1.77125 0.0888,-1.50625 -0.0888,0.885 0.0888,-0.97375 -1.4175,0.35375 -1.4175,0.355 -1.4175,0.4425 -1.4175,0.355 -1.32875,0.35375 -1.4175,0.355 -1.41625,0.35375 -1.4175,0.4425 -1.4175,0.355 -1.4175,0.35375 -1.4175,0.44375 -1.32875,0.35375 -1.4175,0.4425 -1.4175,0.44375 -1.41625,0.35375 -1.4175,0.44375 -1.4175,0.4425 -1.32875,0.4425 -1.4175,0.44375 -1.4175,0.35375 -1.4175,0.4425 -1.32875,0.44375 -1.4175,0.53125 -1.41625,0.4425 -1.4175,0.44375 -1.32875,0.4425 -1.4175,0.4425 -1.4175,0.53125 -1.4175,0.44375 -1.32875,0.53125 -1.4175,0.4425 -1.32875,0.5325 5.40375,19.4875 -1.0625,0.35375 -1.15125,0.44375 -1.06375,0.4425 -1.15125,0.4425 -1.0625,0.355 -1.06375,0.4425 -1.15125,0.44375 -1.06375,0.4425 -7.08625,-18.95625 -1.0625,0.4425 -1.06375,0.35375 -1.0625,0.44375 -1.0625,0.4425 -1.06375,0.4425 -0.97375,0.355 -1.06375,0.4425 -1.0625,0.44375 -1.06375,0.4425 -1.0625,0.4425 -0.97375,0.4425 -1.06375,0.44375 -1.0625,0.4425 -0.975,0.4425 -1.0625,0.5325 -1.06375,0.4425 -0.97375,0.4425 -1.0625,0.44375 -1.06375,0.53125 -0.97375,0.4425 -1.06375,0.44375 -0.97375,0.53125 -1.06375,0.4425 -0.97375,0.53125 -1.06375,0.44375 -0.97375,0.53125 -0.975,0.4425 -1.0625,0.53125 -0.975,0.5325 -1.0625,0.4425 -0.975,0.53125 -0.97375,0.53125 -1.0625,0.53125 -0.975,0.44375 -0.97375,0.53125 -1.06375,0.53125 -0.97375,0.53125 -1.06375,0.5325 -0.97375,0.53125 -0.975,0.53125 13.37625,16.1225 -1.0625,0.62 -1.1525,0.62 -1.15125,0.53125 -1.0625,0.62 -1.1525,0.62 -1.0625,0.62 -1.0625,0.62 -1.1525,0.62 -0.885,-0.885 -0.7975,-0.88625 -0.88625,-0.88625 -0.7975,-0.7975 -0.79625,-0.79625 -0.70875,-0.7975 -0.70875,-0.70875 -0.70875,-0.70875 -0.70875,-0.70875 -0.70875,-0.70875 -1.15125,-1.24 -1.1525,-1.15125 -0.97375,-0.975 -0.975,-0.97375 -0.79625,-0.7975 -1.1525,-1.24 -1.0625,-0.975 -1.4175,0.7975 -1.4175,0.7975 -1.32875,0.885 -1.4175,0.7975 -1.41625,0.88625 -1.4175,0.7975 -1.417495,0.885 -1.32875,0.88625 -1.4175,0.88625 -1.4175,0.885 -1.32875,0.88625 -1.4175,0.88625 -1.32875,0.885 -1.32875,0.975 -1.4175,0.88625 -1.32875,0.885 -1.32875,0.975 -1.41625,0.97375 -1.32875,0.88625 -1.32875,0.97375 -1.32875,0.975 -1.32875,0.975 -1.32875,0.97375 -1.32875,0.975 -1.24125,1.0625 -1.32875,0.975 -1.32875,1.0625 -1.32875,0.97375 -1.24,1.06375 -1.32875,0.97375 -1.24,1.06375 -1.24,1.0625 20.64,10.1875 -1.32875,1.0625 -1.24,0.975 -1.24,0.97375 -1.24,1.06375 -1.24125,0.97375 -1.24,1.06375 -1.24,1.0625 -1.15125,0.97375 -21.88,-8.5925 -1.151625,1.06375 -1.063,1.0625 -1.1515,1.06375 -1.151625,1.0625 -1.063,1.15125 -1.1515,1.06375 -1.063,1.15125 -1.151625,1.0625 -1.063,1.1525 -1.063,1.0625 -1.063,1.15125 -1.063,1.15125 -1.063,1.1525 -1.063,1.15125 -1.062875,1.15125 -1.063,1.1525 -0.885875,1.0625 -0.885875,0.97375 -0.79725,0.975 -0.88575,0.975 -0.79725,1.0625 -0.885875,0.97375 -0.79725,1.06375 -0.79725,1.0625 -0.79725,0.975 -0.79725,1.0625 -0.79725,1.06375 -0.797125,1.0625 -0.79725,1.0625 -0.70875,1.06375 -0.79725,1.0625 -0.708625,1.0625 -0.708625,1.06375 -0.70875,1.15125 -0.708625,1.06375 -0.708625,1.0625 -0.708625,1.15125 -0.70875,1.06375 -0.708625,1.15125 -0.620125,1.0625 -0.62,1.1525 -0.70875,1.15125 -0.62,1.0625 -0.620125,1.15125 -0.62,1.1525 -0.620125,1.15125 -0.5315,1.0625 -0.620125,1.1525 23.385875,0.97375 -0.620125,1.0625 -0.708625,1.1525 -0.885875,1.505 -0.79725,1.50625 -0.88575,1.50625 -0.79725,1.595 -0.79725,1.505 -0.708625,1.595 -0.79725,1.50625 -0.70875,1.59375 -1.240125,0.0888 -1.1515,0 -1.151625,0.0888 -1.151625,0.0887 -1.063,0 -1.063,0.0888 -1.062875,0 -1.063,0.0875 -0.9745,0 -0.974375,0.0888 -0.974375,0 -0.974375,0 -1.683125,0.0888 -1.5945,0.0888 -1.505875,0.0887 -1.240125,0 -1.151625,0.0888 -1.683125,0.0888 -0.88575,0 -0.088625,0 -0.354375,1.15125 -0.442875,1.15125 -0.35425,1.06375 -0.354375,1.15125 -0.354375,1.0625 -0.26575,1.15125 -0.35425,1.1525 -0.26575,1.0625 -0.354375,1.15125 -0.26575,1.1525 -0.26575,1.15125 -0.26575,1.0625 -0.26575,1.1525 -0.26575,1.15125 -0.177125,1.15125 -0.26575,1.0625 -0.17725,1.1525 L 1.9485,190.63 1.771375,191.78125 1.594125,192.845 1.417,193.99625 1.328375,195.1475 1.15125,196.29875 1.062625,197.3625 0.8855,198.51375 0.796875,199.665 l -0.0885,1.06375 0,1.15125 -0.088625,1.15125 -0.0885,1.1525 0,1.0625 0,1.15125 0,1.15125 0,1.06375 0,1.15125 0,1.15125 0.0885,1.06375 0.088625,1.15125 0,1.0625 0.0885,1.1525 0.17725,1.0625 0.0885,1.15125 0.088625,1.06375 0.177125,1.15125 0.17725,1.0625 0.0885,1.1525 0.26575,1.0625 0.17725,1.0625 0.177125,1.1525 0.26575,1.0625 0.177125,1.0625 0.26575,1.1525 0.26575,1.0625 0.26575,1.06375 0.354375,1.0625 0.26575,1.0625 0.354375,1.06375 0.35425,1.0625 0.354375,1.0625 0.354375,1.06375 0.35425,1.0625 0.442875,1.06375 0.354375,1.0625 0.442875,1.0625 16.0335,-6.3775 0.26575,1.0625 0.354375,0.975 0.35425,1.0625 0.26575,0.975 0.354375,0.97375 0.354375,1.06375 0.35425,0.97375 0.443,0.975 0.35425,0.88625 0.443,0.97375 0.35425,0.975 0.443,0.885 0.442875,0.975 0.442875,0.885 0.442875,0.88625 0.443,0.88625 -1.240125,0.70875 -1.32875,0.62 -1.24025,0.62 -1.240125,0.62 -1.151625,0.53125 -1.062875,0.62 -1.063,0.44375 -0.9745,0.53125 -0.88575,0.4425 -1.506,0.70875 -1.1515,0.62 -0.5315,0.26625 -0.08863,0 0.70875,0.97375 0.62,0.975 0.708625,0.885 0.70875,0.975 0.62,0.88625 0.70875,0.885 0.708625,0.88625 0.79725,0.88625 0.708625,0.885 0.70875,0.88625 0.797125,0.7975 0.70875,0.885 0.79725,0.7975 0.79725,0.88625 0.79725,0.7975 0.79725,0.79625 0.79725,0.7975 0.797125,0.7975 0.79725,0.70875 0.79725,0.7975 0.885875,0.70875 0.79725,0.79625 0.885875,0.70875 0.88575,0.70875 0.79725,0.70875 0.885875,0.70875 0.88575,0.70875 0.885875,0.70875 0.885875,0.62 0.88575,0.70875 0.974375,0.62 0.885875,0.62 0.885875,0.70875 0.974375,0.62 0.885875,0.62 0.974375,0.62 0.88575,0.53125 0.9745,0.62 0.974375,0.62125 0.974375,0.53125 0.9745,0.62 0.974375,0.53125 0.974375,0.53125 0.974375,0.53125 0.9745,0.5325 1.063,0.53125 0.974125,0.53125 0.975,0.53125 1.0625,0.4425 0.975,0.5325 1.0625,0.4425 0.975,0.4425 1.0625,0.5325 1.0625,0.4425 1.06375,0.4425 0.97375,0.44375 1.06375,0.4425 1.0625,0.4425 1.0625,0.355 1.06375,0.4425 1.0625,0.35375 1.15125,0.44375 1.06375,0.35375 1.0625,0.44375 7.26375,-7.53 0.975,0.35375 0.97375,0.355 0.975,0.265 0.97375,0.355 0.975,0.26625 0.97375,0.35375 0.975,0.26625 0.975,0.265 0.97375,0.355 0.975,0.265 0.97375,0.26625 1.06375,0.265 0.97375,0.26625 0.975,0.26625 1.0625,0.265 0.97375,0.26625 -6.28875,7.6175 1.4175,0.355 1.50625,0.35375 1.41625,0.26625 1.50625,0.35375 1.4175,0.26625 1.50625,0.26625 1.50499,0.265 1.4175,0.26625 1.50625,0.265 1.50625,0.26625 1.4175,0.26625 1.505,0.17625 1.50625,0.26625 1.50625,0.1775 1.50625,0.17625 1.41625,0.1775 1.50625,0.1775 1.50625,0.1775 1.50625,0.17625 1.505,0.1775 1.4175,0.0888 1.50625,0.1775 1.50625,0.0875 1.505,0.1775 1.50625,0.0888 1.50625,0.0888 1.4175,0.0888 1.505,0.0888 1.50625,0.0888 1.50625,0 1.4175,0.0875 1.505,0.0888 0.88625,0 0.975,0 0.885,0.0888 0.88625,0 0.97375,0 0.88625,0 0.975,0 0.885,0 0.975,0 0.885,0 0.975,0 0.88625,0 0.97375,0 0.975,0 0.885,0 0.975,-0.0888 2.6575,-7.08625 1.59375,0 1.68375,0 1.595,0 1.6825,0 1.595,0 1.59375,0 1.68375,-0.0888 1.59375,0 -0.4425,1.68375 -0.355,1.32875 -0.35375,1.15125 -0.4425,1.59375 -0.1775,0.7975 -0.0888,0.0888 1.595,-0.0888 1.505,-0.0888 1.50625,-0.0888 1.595,-0.17625 1.505,-0.0888 1.595,-0.0888 1.595,-0.1775 1.505,-0.0888 1.595,-0.17625 1.50625,-0.0888 1.59375,-0.1775 1.595,-0.1775 1.505,-0.17625 1.595,-0.0888 1.595,-0.1775 1.59375,-0.1775 1.50625,-0.17625 1.595,-0.1775 1.59375,-0.1775 1.595,-0.26625 1.505,-0.17625 1.595,-0.1775 1.595,-0.1775 1.59375,-0.17625 1.50625,-0.26625 1.595,-0.1775 1.59375,-0.1775 1.595,-0.265 1.505,-0.1775 1.595,-0.265 1.595,-0.1775 1.505,-0.26625 -0.265,-4.96 1.4175,-0.26625 1.41625,-0.1775 1.50625,-0.17625 1.4175,-0.1775 1.4175,-0.1775 1.32875,-0.265 1.4175,-0.1775 1.4175,-0.1775 0.70875,4.78375 1.24,-0.1775 1.24,-0.1775 1.32875,-0.17625 1.24,-0.26625 1.24,-0.1775 1.24,-0.17625 1.24,-0.1775 1.24,-0.26625 1.24125,-0.17625 1.24,-0.1775 1.24,-0.26625 1.24,-0.17625 1.24,-0.1775 1.24,-0.1775 1.24,-0.26625 1.24,-0.17625 1.24125,-0.1775 1.15125,-0.26625 1.24,-0.17625 1.24,-0.1775 1.15125,-0.1775 1.24,-0.265 1.1525,-0.1775 1.24,-0.1775 1.15125,-0.265 1.24,-0.1775 1.1525,-0.1775 1.15125,-0.1775 1.15125,-0.265 1.24,-0.1775 1.15125,-0.1775 1.1525,-0.17625 1.24,-0.1775 1.24,-0.26625 1.15125,-0.1775 1.24,-0.17625 1.1525,-0.26625 1.15125,-0.1775 1.15125,-0.17625 1.15125,-0.1775 -3.2775,-6.29 1.595,-0.4425 1.50625,-0.53125 1.505,-0.4425 1.50625,-0.5325 1.4175,-0.53125 1.4175,-0.53125 1.24,-0.53125 1.24,-0.53125 5.1375,8.06 1.1525,-0.265 1.0625,-0.1775 1.0625,-0.1775 0.975,-0.17625 1.6825,-0.26625 1.50626,-0.26625 1.15125,-0.17625 1.32875,-0.26625 -1.505,0.26625 1.6825,-0.355 -7.08625,-60.325 -5.13875,-4.07375 -0.62,0.0875 -1.505,0.26625 -1.06376,0.0888 -1.15125,0.1775 -1.24,0.17625 -1.24,0.26625 -1.32875,0.1775 -1.24,0.17625 -1.1525,0.1775 -0.97375,0.0888 -1.595,0.26625 0.1775,0 -0.70875,0.0875 -0.1775,0.26625 -0.35375,0.7975 -0.4425,0.7975 -0.44375,0.97375 -0.53125,1.06375 -0.53125,1.24 -0.70875,1.32875 -0.62,1.4175 -0.7975,1.59375 -0.35375,0.7975 -0.355,0.88625 -0.4425,0.79625 -0.355,0.88625 -0.4425,0.88625 -0.4425,0.97375 -0.44375,0.88625 -0.4425,0.88625 -0.4425,0.97375 -0.44375,0.975 -0.4425,0.97375 -0.4425,0.975 -0.5325,0.97375 -0.4425,0.975 -0.4425,0.97375 -0.44375,0.975 -0.53125,0.97375 -0.4425,0.975 -0.4425,0.97375 -0.5325,0.975 -0.4425,0.88625 -0.4425,0.97375 -0.53125,0.975 -0.44375,0.885 -0.4425,0.975 -0.4425,0.885 -0.53249,0.88625 -0.4425,0.88625 -0.4425,0.7975 -0.44375,0.885 -0.4425,0.7975 -0.7975,1.50625 -0.7975,1.505 -0.79625,1.32875 -0.70875,1.1525 -0.70875,1.0625 -0.70875,0.975 -1.0625,1.32875 -1.4175,0.265 0.70875,0.1775 -0.88625,0.4425 -1.15125,0.355 -1.4175,0.4425 -1.595,0.4425 -0.885,0.1775 -0.975,0.1775 -0.975,0.26625 -0.97375,0.17625 -1.0625,0.26625 -1.1525,0.1775 -1.0625,0.265 -1.24,0.1775 -1.15125,0.1775 -1.24125,0.265 -1.32875,0.1775 -1.24,0.26625 -1.32875,0.17625 -1.4175,0.26625 -1.32875,0.1775 -1.41625,0.265 -1.4175,0.1775 -1.4175,0.1775 -1.50625,0.265 -1.4175,0.1775 -1.505,0.26625 -1.50625,0.17625 -1.50625,0.1775 -1.50625,0.26625 -1.505,0.17625 -1.50625,0.1775 -1.50625,0.1775 -1.50625,0.265 -1.505,0.1775 -1.50625,0.1775 -1.50625,0.1775 -1.4175,0.17625 -1.505,0.1775 -1.4175,0.1775 -1.50625,0.1775 -1.4175,0.17625 -1.4175,0.1775 -1.41625,0.0887 -1.32875,0.1775 -1.32875,0.17625 -1.32875,0.0888 -1.32875,0.1775 -1.24125,0.0888 -1.24,0.1775 -1.15125,0.0875 -1.15125,0.1775 -1.15125,0.0888 -1.06375,0.0888 -1.0625,0.0888 -0.975,0.0888 -0.97375,0.0888 -1.7725,0.17625 -1.505,0.1775 -1.4175,0.0888 0.70875,-0.0888 z"
         id="path3769" />
      <circle
         id="path4325"
         style="color:#000000;display:inline;overflow:visible;visibility:visible;fill:#ff0000;fill-opacity:1;fill-rule:nonzero;stroke:none;stroke-width:1;marker:none;enable-background:accumulate"
         cx="202.14586"
         cy="168.19376"
         r="10.295628"
         d="m 212.44149,168.19376 a 10.295628,10.295628 0 0 1 -10.29563,10.29562 10.295628,10.295628 0 0 1 -10.29563,-10.29562 10.295628,10.295628 0 0 1 10.29563,-10.29563 10.295628,10.295628 0 0 1 10.29563,10.29563 z" />
    </g>
  </g>
</svg>
